<svg xmlns="http://www.w3.org/2000/svg" viewBox="0 0 900 278" width="900" height="278" role="img" aria-labelledby="t">
  <title id="t">4 of 4 validators healthy</title>
  <defs>
    <clipPath id="card"><rect x="1" y="1" width="898" height="276" rx="14"/></clipPath>
    <pattern id="scan" width="4" height="4" patternUnits="userSpaceOnUse"><rect width="4" height="1" fill="#fff" opacity=".035"/></pattern>
  </defs>
  <style>
    text { font-family: ui-monospace, "SF Mono", SFMono-Regular, Menlo, "Cascadia Mono", Consolas, "Liberation Mono", monospace; font-size: 14px; fill: #c8d0c9; white-space: pre; }
    .dim { fill: #5f6f66; } .amb { fill: #ffb454; } .ok { fill: #3ddc97; } .s { font-size: 12px; } .m { font-size: 13px; fill: #9aa69e; }
    .row { opacity: 0; animation: in .4s ease-out forwards; }
    @keyframes in { from { opacity: 0; transform: translateY(4px); } to { opacity: 1; transform: none; } }
    .ring { transform-box: fill-box; transform-origin: center; animation: ring 2s ease-out infinite; }
    @keyframes ring { 0% { transform: scale(1); opacity: .7; } 80%, 100% { transform: scale(3); opacity: 0; } }
    @media (prefers-reduced-motion: reduce) { .row { opacity: 1; animation: none; } .ring { display: none; } }
  </style>
  <rect x="1" y="1" width="898" height="276" rx="14" fill="#0b0f0d" stroke="#243029"/>
  <g clip-path="url(#card)">
    <rect width="900" height="40" fill="#111713"/>
    <line x1="0" y1="40.5" x2="900" y2="40.5" stroke="#1f2a24"/>
    <text x="24" y="25"><tspan class="amb">jonathan@nansen</tspan><tspan class="dim">:~$ </tspan>validatorctl status --mainnet</text>
    <text x="876" y="25" class="dim s" text-anchor="end">probed 2026-10-10 18:35 UTC</text>
    <g class="row" style="animation-delay:0.30s"><rect x="24" y="60" width="852" height="34" rx="8" fill="#101613"/><text x="44" y="84">hyperliquid</text><circle cx="190" cy="79" r="4" fill="#3ddc97" class="ring"/><circle cx="190" cy="79" r="4" fill="#3ddc97"/><text x="204" y="84" style="fill:#3ddc97">active</text><text x="330" y="84" class="m">uptime 100.00% 7d</text><text x="540" y="84" class="m">commission 2%</text><text x="856" y="84" class="amb" text-anchor="end">21.85M <tspan class="dim">HYPE</tspan></text></g><g class="row" style="animation-delay:0.55s"><rect x="24" y="100" width="852" height="34" rx="8" fill="#101613"/><text x="44" y="124">solana</text><circle cx="190" cy="119" r="4" fill="#3ddc97" class="ring"/><circle cx="190" cy="119" r="4" fill="#3ddc97"/><text x="204" y="124" style="fill:#3ddc97">voting</text><text x="330" y="124" class="m">skip rate 0.00%</text><text x="540" y="124" class="m">last vote 455,356,105</text><text x="856" y="124" class="amb" text-anchor="end">2.18M <tspan class="dim">SOL</tspan></text></g><g class="row" style="animation-delay:0.80s"><rect x="24" y="140" width="852" height="34" rx="8" fill="#101613"/><text x="44" y="164">injective</text><circle cx="190" cy="159" r="4" fill="#3ddc97" class="ring"/><circle cx="190" cy="159" r="4" fill="#3ddc97"/><text x="204" y="164" style="fill:#3ddc97">bonded</text><text x="330" y="164" class="m">uptime 100.00%</text><text x="540" y="164" class="m">rank #16</text><text x="856" y="164" class="amb" text-anchor="end">1.33M <tspan class="dim">INJ</tspan></text></g><g class="row" style="animation-delay:1.05s"><rect x="24" y="180" width="852" height="34" rx="8" fill="#101613"/><text x="44" y="204">cosmos hub</text><circle cx="190" cy="199" r="4" fill="#3ddc97" class="ring"/><circle cx="190" cy="199" r="4" fill="#3ddc97"/><text x="204" y="204" style="fill:#3ddc97">bonded</text><text x="330" y="204" class="m">uptime 100.00%</text><text x="540" y="204" class="m">rank #18</text><text x="856" y="204" class="amb" text-anchor="end">3.99M <tspan class="dim">ATOM</tspan></text></g>
    <text x="24" y="264" class="s"><tspan class="ok">4/4</tspan><tspan class="dim"> healthy · live from public chain APIs · nansen validators I operate</tspan></text>
    <rect width="900" height="278" fill="url(#scan)"/>
  </g>
</svg>
